<svg xmlns="http://www.w3.org/2000/svg" width="135" height="25">
<symbol id="logo" stroke="currentColor" fill="currentColor">
  <path d="m6.14 5.74 4.1 12.87h.16l4.1-12.87h6.15l-6.61 18.25H6.61L0 5.74h6.14ZM22.58 24V5.73H37v4h-9v3.13h8.26v4H28V20h8.96v4h-14.4Zm4.18-19.86c-.66 0-1.23-.2-1.69-.61a1.87 1.87 0 0 1 0-2.92C25.53.2 26.1 0 26.77 0c.64 0 1.19.2 1.64.6a1.87 1.87 0 0 1 0 2.93c-.45.4-1 .6-1.65.6Zm6.22 0c-.66 0-1.23-.2-1.7-.61a1.87 1.87 0 0 1 0-2.92c.47-.4 1.04-.61 1.7-.61.65 0 1.2.2 1.65.6a1.87 1.87 0 0 1 0 2.93c-.45.4-1 .6-1.65.6ZM39.7 24V5.73h8.65c1.48 0 2.78.25 3.9.74 1.11.5 1.98 1.2 2.6 2.13.62.93.93 2.04.93 3.33 0 1.31-.32 2.41-.96 3.31a5.79 5.79 0 0 1-2.67 2.03 10.7 10.7 0 0 1-4 .69H43v-3.85h4.07c.64 0 1.18-.07 1.63-.22.46-.14.8-.38 1.05-.7a2 2 0 0 0 .37-1.26c0-.52-.13-.94-.37-1.27a2.06 2.06 0 0 0-1.05-.73c-.45-.16-1-.24-1.63-.24h-1.92V24H39.7Zm11.74-8.38 5 8.37h-5.9l-4.9-8.37h5.8ZM68.89 11.44c-.05-.59-.3-1.05-.73-1.39-.43-.33-1.09-.5-1.97-.5-.56 0-1.02.07-1.38.2-.35.11-.61.27-.78.48-.17.21-.26.45-.26.71-.02.22.03.42.12.6.1.17.27.33.5.47a4 4 0 0 0 .84.38c.35.11.76.21 1.23.3l1.65.32c1.1.22 2.05.5 2.84.85a6.8 6.8 0 0 1 1.94 1.24c.5.47.87 1 1.1 1.58.24.6.37 1.23.37 1.93 0 1.2-.33 2.22-.98 3.05a6.02 6.02 0 0 1-2.8 1.9c-1.2.43-2.66.65-4.35.65-1.74 0-3.26-.24-4.56-.7a6.29 6.29 0 0 1-3-2.17 6.3 6.3 0 0 1-1.08-3.76h5.16c.03.55.19 1.02.46 1.4.27.38.66.67 1.15.87.5.2 1.1.3 1.8.3.57 0 1.06-.07 1.45-.2.39-.13.69-.32.89-.55.2-.23.3-.5.31-.79 0-.28-.1-.52-.3-.73-.2-.21-.5-.4-.94-.57-.44-.17-1.03-.33-1.77-.48l-2-.4a9.6 9.6 0 0 1-4.19-1.75 4.1 4.1 0 0 1-1.51-3.38c-.01-1.16.33-2.17 1.01-3.04a6.75 6.75 0 0 1 2.87-2.04c1.22-.49 2.63-.73 4.21-.73 1.62 0 3.02.25 4.2.74a6.16 6.16 0 0 1 2.72 2.09c.65.89.97 1.93.98 3.12h-5.2ZM75.89 9.73V5.74h17.4v4h-6.02v14.25H81.9V9.73h-6.02ZM95.33 24V5.73h5.44v7.38h.27l6.03-7.38h6.33l-6.76 8.13 6.92 10.12h-6.5l-4.5-6.84-1.79 2.14v4.7h-5.44ZM120.22 24h-5.87l6.61-18.26h7.43L135 23.99h-5.87l-4.38-13.22h-.15l-4.38 13.22Zm-1.1-7.2h11.03v3.7h-11.03v-3.7Z"/>
</symbol>
</svg>

